<svg xmlns="http://www.w3.org/2000/svg" viewBox="0 0 520 96" role="img" aria-label="?@>D8.@C">
  <g fill="#FA2A48">
    <!-- ?@>D8 -->
    <path d="M8 18h28c18 0 30 10 30 28s-12 28-30 28H28v22H8V18zm20 16v24h8c8 0 13-5 13-12s-5-12-13-12h-8z"/>
    <path d="M78 18h20v56c0 14-8 22-22 22-6 0-12-2-16-5l8-16c2 1 4 2 7 2 4 0 6-2 6-7V18z"/>
    <path d="M112 42c0-16 12-26 30-26 10 0 18 3 24 9l-12 14c-3-3-7-5-12-5-7 0-11 4-11 10v2c0 6 4 10 11 10 5 0 9-2 12-5l12 14c-6 6-15 9-25 9-19 0-29-12-29-32z"/>
    <path d="M176 18h20v78h-20V18z"/>
    <!-- person colon -->
    <circle cx="222" cy="34" r="11"/>
    <rect x="208" y="52" width="28" height="14" rx="7"/>
    <!-- @C -->
    <path d="M252 18h28c18 0 30 10 30 28s-12 28-30 28h-8v22h-20V18zm20 16v24h8c8 0 13-5 13-12s-5-12-13-12h-8z"/>
    <path d="M322 18h20v56c0 14-8 22-22 22-6 0-12-2-16-5l8-16c2 1 4 2 7 2 4 0 6-2 6-7V18z"/>
  </g>
</svg>
